HIERARCHY
ROOT Hips
{
	OFFSET 0.00000 0.00000 0.00000
	CHANNELS 6 Xposition Yposition Zposition Zrotation Yrotation Xrotation 
	JOINT LHipJoint
	{
		OFFSET 0 0 0
		CHANNELS 3 Zrotation Yrotation Xrotation
		JOINT LeftHip
		{
			OFFSET 1.62964 -1.40469 0.78906
			CHANNELS 3 Zrotation Yrotation Xrotation
			JOINT LeftKnee
			{
				OFFSET 2.29640 -6.30932 0.00000
				CHANNELS 3 Zrotation Yrotation Xrotation
				JOINT LeftAnkle
				{
					OFFSET 2.29451 -6.30412 0.00000
					CHANNELS 3 Zrotation Yrotation Xrotation
					JOINT LeftToe
					{
						OFFSET 0.03611 -0.09921 1.56387
						CHANNELS 3 Zrotation Yrotation Xrotation
						End Site
						{
							OFFSET 0.00000 -0.00000 0.80291
						}
					}
				}
			}
		}
	}
	JOINT RHipJoint
	{
		OFFSET 0 0 0
		CHANNELS 3 Zrotation Yrotation Xrotation
		JOINT RightHip
		{
			OFFSET -1.73712 -1.40469 0.78906
			CHANNELS 3 Zrotation Yrotation Xrotation
			JOINT RightKnee
			{
				OFFSET -2.28137 -6.26801 0.00000
				CHANNELS 3 Zrotation Yrotation Xrotation
				JOINT RightAnkle
				{
					OFFSET -2.28681 -6.28298 0.00000
					CHANNELS 3 Zrotation Yrotation Xrotation
					JOINT RightToe
					{
						OFFSET -0.15927 -0.43759 1.61103
						CHANNELS 3 Zrotation Yrotation Xrotation
						End Site
						{
							OFFSET -0.00000 -0.00000 0.84630
						}
					}
				}
			}
		}
	}
	JOINT lowerback
	{
		OFFSET 0 0 0
		CHANNELS 3 Zrotation Yrotation Xrotation
		JOINT Chest
		{
			OFFSET -0.04227 2.04338 -0.00225
			CHANNELS 3 Zrotation Yrotation Xrotation
			JOINT Chest2
			{
				OFFSET -0.02148 2.04482 -0.04273
				CHANNELS 3 Zrotation Yrotation Xrotation
				JOINT lowerneck
				{
					OFFSET 0 0 0
					CHANNELS 3 Zrotation Yrotation Xrotation
					JOINT Neck
					{
						OFFSET 0.09180 1.44629 0.19359
						CHANNELS 3 Zrotation Yrotation Xrotation
						JOINT Head
						{
							OFFSET 0.00887 1.40645 0.14750
							CHANNELS 3 Zrotation Yrotation Xrotation
							End Site
							{
								OFFSET -0.00669 1.50671 0.03707
							}
						}
					}
				}
				JOINT LeftCollar
				{
					OFFSET 0 0 0
					CHANNELS 3 Zrotation Yrotation Xrotation
					JOINT LeftShoulder
					{
						OFFSET 2.17674 1.86763 -0.06520
CHANNELS 3 Zrotation Xrotation Yrotation
						JOINT LeftElbow
						{
OFFSET 0 -4.657760 0.000000
CHANNELS 3 Zrotation Xrotation Yrotation
							JOINT LeftWrist
							{
OFFSET 0 -3.555390 0.000000
CHANNELS 3 Zrotation Xrotation Yrotation
								JOINT lhand
								{
									OFFSET 0 0 0
CHANNELS 3 Zrotation Xrotation Yrotation
									JOINT LFingers
									{
OFFSET 0 -0.707260 0.000000
CHANNELS 3 Zrotation Xrotation Yrotation
										End Site
										{
OFFSET 0 -0.570220 0.000000
										}
									}
								}
								JOINT LThumb
								{
OFFSET 0 0.000000 0.000000
CHANNELS 3 Zrotation Xrotation Yrotation
									End Site
									{
OFFSET 0 -0.578920 0.578920
									}
								}
							}
						}
					}
				}
				JOINT RightCollar
				{
					OFFSET 0 0 0
					CHANNELS 3 Zrotation Yrotation Xrotation
					JOINT RightShoulder
					{
						OFFSET -2.80694 1.55459 -0.32496
CHANNELS 3 Zrotation Xrotation Yrotation
						JOINT RightElbow
						{
OFFSET 0 -4.719250 -0.000000
CHANNELS 3 Zrotation Xrotation Yrotation
							JOINT RightWrist
							{
OFFSET 0 -3.569900 0.000000
CHANNELS 3 Zrotation Xrotation Yrotation
								JOINT rhand
								{
									OFFSET 0 0 0
CHANNELS 3 Zrotation Xrotation Yrotation
									JOINT RFingers
									{
OFFSET 0 -0.507760 0.000000
CHANNELS 3 Zrotation Xrotation Yrotation
										End Site
										{
OFFSET 0 -0.409370 0.000000
										}
									}
								}
								JOINT RThumb
								{
OFFSET 0 0.000000 0.000000
CHANNELS 3 Zrotation Xrotation Yrotation
									End Site
									{
OFFSET 0 -0.415620 0.415620
									}
								}
							}
						}
					}
				}
			}
		}
	}
}
MOTION
Frames: 12
Frame Time: .0083333
10.6794 23.5061 8.7164 377.4020 -48.7735 19.2464 0.0000 0.0000 0.0000 -14.1469 -15.8544 -43.5707 7.0768 15.3962 49.1640 1.7858 19.2096 25.7413 6.6938 -15.0685 -47.7065 0.0000 0.0000 0.0000 15.0463 15.6408 -42.4707 -2.0756 -9.0218 25.8635 -0.5658 -12.5761 14.9855 -3.8444 11.9504 -35.5567 -9.1275 -0.9806 -27.7602 1.7812 1.0648 -3.7491 7.7138 0.0037 10.9538 -2.9343 -0.4962 -0.7894 6.7194 -1.1657 8.9122 2.7015 -0.4832 3.0909 -0.0000 0.0000 0.0000 70.779 19.8032 -33.5825 133.9715 -51.2625 96.9618 24.4657 -32.0549 29.1904 0.0 0.0 0.0 -7.1250 0.0 0.0 -3.6655 -1.5033 -3.768 -0.0000 0.0000 0.0000 -8.5729 1.022 58.8263 -57.4519 -55.5918 -32.2297 25.1568 -30.3821 47.1368 0.0 0.0 0.0 7.1250 0.0 -0.0 76.8931 61.2126 -43.0458
10.7507 23.5070 8.7183 378.5320 -52.6458 18.3204 0.0000 0.0000 0.0000 -13.9448 -15.5354 -43.5897 6.9943 15.3271 48.8527 1.8478 18.9916 26.0288 6.6674 -15.0453 -47.6050 0.0000 0.0000 0.0000 15.1827 15.2008 -42.5989 -2.1259 -9.1235 26.1824 -0.5304 -13.2256 14.9084 -3.6526 11.6831 -34.6201 -9.0973 -0.6296 -27.7531 1.7158 1.5115 -3.6815 7.7794 0.2079 10.9430 -3.0627 -0.4607 -0.7490 6.7409 -1.1182 8.8807 2.7333 -0.4660 3.0719 0.0000 -0.0000 0.0000 71.5593 19.0468 -32.9902 133.4981 -51.4834 96.5919 24.6623 -32.198 29.3599 0.0 0.0 0.0 -7.1250 0.0 0.0 -3.5770 -1.7233 -3.69 0.0000 -0.0000 0.0000 -8.8452 0.948 58.0852 -54.4443 -54.6379 -29.7623 25.995 -30.3553 46.9137 0.0 0.0 0.0 7.1250 0.0 -0.0 77.1318 60.888 -42.7476
10.8309 23.5019 8.7067 380.1190 -56.1969 16.9166 0.0000 0.0000 0.0000 -13.8603 -15.3650 -43.8269 6.9767 15.3123 48.7862 1.8499 18.9103 26.0169 6.4177 -14.8213 -46.6361 0.0000 0.0000 0.0000 15.0286 14.6776 -42.7002 -2.1726 -9.2166 26.4754 -0.3917 -14.7426 14.3113 -3.0276 10.7396 -31.4066 -9.3521 -0.6030 -27.4317 1.6524 1.6051 -3.4860 7.8797 0.2317 10.9790 -3.1122 -0.3223 -0.9569 6.6494 -0.9228 8.8864 2.7180 -0.3714 3.1008 0.0000 -0.0000 0.0000 72.2177 18.774 -32.0534 133.2849 -51.5816 96.425 24.7947 -31.8599 29.3165 0.0 0.0 0.0 -7.1250 0.0 0.0 -3.4937 -1.7077 -3.6029 0.0000 -0.0000 0.0000 -8.9163 0.273 57.7756 -51.3638 -53.531 -27.2672 27.4295 -30.6958 47.264 0.0 0.0 0.0 7.1250 0.0 -0.0 78.6916 60.62 -43.7941
10.9166 23.4861 8.7129 381.7250 -59.4088 15.4733 0.0000 0.0000 0.0000 -13.6717 -15.5411 -44.0869 6.9616 15.2995 48.7291 1.8315 18.9539 25.9249 5.9868 -14.4155 -44.9285 0.0000 0.0000 0.0000 15.3300 13.5049 -42.9586 -2.1765 -9.2244 26.4998 -0.3990 -15.4887 14.7465 -2.9938 10.6850 -31.2248 -9.1720 -0.6876 -27.3079 1.5368 1.4734 -3.0072 7.6029 0.1336 11.5106 -3.0204 -0.1449 -1.5670 6.4726 -0.6657 8.9187 2.6535 -0.2368 3.2089 0.0000 0.0000 0.0000 72.9622 17.9637 -30.5098 132.4268 -51.9686 95.7509 24.847 -31.6856 29.2134 0.0 0.0 0.0 -7.1250 0.0 0.0 -3.4476 -1.612 -3.5496 0.0000 0.0000 0.0000 -8.7609 -1.1244 57.8142 -48.2936 -52.2837 -24.8178 26.2133 -29.1773 47.8099 0.0 0.0 0.0 7.1250 0.0 -0.0 78.7133 61.1702 -44.7082
11.0037 23.4630 8.7276 383.6880 -62.4642 13.5859 0.0000 0.0000 0.0000 -13.5914 -15.8355 -44.1470 6.9069 15.2530 48.5212 1.7788 19.1736 25.6903 5.3117 -13.7264 -42.1524 0.0000 0.0000 0.0000 15.6034 12.0884 -43.1932 -2.1858 -9.2428 26.5578 -0.4039 -15.9542 15.0243 -2.8593 10.4637 -30.4918 -8.9826 -0.2981 -27.0299 1.5043 1.9222 -2.6996 7.6111 0.3345 11.6453 -3.3780 -0.3075 -1.9477 6.6846 -0.8772 8.8981 2.7899 -0.3402 3.2943 0.0000 -0.0000 0.0000 73.3666 15.8417 -29.818 131.6570 -52.305 95.1431 24.809 -31.8133 29.785 0.0 0.0 0.0 -7.1250 0.0 0.0 -3.5574 -2.1984 -3.6983 0.0000 -0.0000 0.0000 -9.3936 -1.5128 56.371 -46.1723 -51.3301 -23.1505 25.968 -27.7835 46.4935 0.0 0.0 0.0 7.1250 0.0 -0.0 76.4526 60.7279 -41.8544
11.0864 23.4323 8.7407 385.7130 -65.4344 11.6806 0.0000 0.0000 0.0000 -13.3655 -15.9229 -44.4198 6.8473 15.2019 48.2944 1.7984 19.0303 25.7593 4.8971 -13.2669 -40.3761 0.0000 0.0000 0.0000 15.6613 11.6259 -43.0831 -2.1670 -9.2055 26.4403 -0.3277 -16.6750 14.7483 -2.9654 10.6388 -31.0712 -8.8092 -0.1370 -26.6496 1.5086 2.0517 -2.5555 7.5467 0.4017 11.5941 -3.4076 -0.3302 -1.9602 6.7280 -0.9120 8.8702 2.8089 -0.3586 3.2902 0.0000 -0.0000 0.0000 74.0324 14.5011 -29.4659 131.5231 -52.3624 95.0371 25.0637 -32.3336 29.5101 0.0 0.0 0.0 -7.1250 0.0 0.0 -3.3678 -1.97 -3.4875 0.0000 -0.0000 0.0000 -9.9886 -1.7044 55.5206 -44.4306 -50.4865 -21.7986 26.2372 -27.5134 46.9759 0.0 0.0 0.0 7.1250 0.0 -0.0 77.4012 60.8444 -42.9304
11.1673 23.3943 8.7544 387.8440 -68.1819 9.7978 0.0000 0.0000 0.0000 -13.0046 -16.0350 -44.9782 6.7818 15.1454 48.0441 1.9542 18.1115 26.3886 5.2882 -13.7012 -42.0534 0.0000 0.0000 0.0000 15.9207 10.8457 -43.0277 -2.0802 -9.0311 25.8926 -0.2544 -17.4002 14.5314 -2.9998 10.6947 -31.2569 -8.6019 -0.0474 -26.3056 1.6549 2.0506 -2.5771 7.5774 0.4185 11.3879 -3.5657 -0.3942 -1.7561 6.8448 -1.0079 8.8367 2.8735 -0.4134 3.2496 -0.0000 -0.0000 0.0000 74.5987 13.1669 -29.4107 131.3417 -52.4398 94.8934 25.2219 -32.7296 29.6817 0.0 0.0 0.0 -7.1250 0.0 0.0 -3.3032 -2.1848 -3.4324 -0.0000 -0.0000 0.0000 -10.6347 -1.7044 54.5498 -42.5872 -49.5302 -20.3862 26.2155 -27.0537 47.6355 0.0 0.0 0.0 7.1250 0.0 -0.0 78.4349 61.1041 -44.3338
11.2473 23.3471 8.7673 390.6010 -70.7396 7.3520 0.0000 0.0000 0.0000 -12.8156 -16.0439 -45.7210 6.6974 15.0717 47.7205 2.2163 16.3517 27.4683 6.2612 -14.6768 -46.0212 0.0000 0.0000 0.0000 16.1680 9.9856 -43.0920 -1.9898 -8.8447 25.3108 -0.1623 -18.2786 14.2814 -3.0579 10.7882 -31.5688 -8.4079 -0.0025 -26.0321 1.7050 2.0189 -2.5574 7.4982 0.4163 11.2766 -3.8069 -0.4595 -1.7349 6.9613 -1.1009 8.8745 2.9570 -0.4654 3.2699 0.0000 -0.0000 0.0000 75.2455 11.6401 -29.2223 130.9419 -52.6085 94.5762 25.3372 -33.1111 30.162 0.0 0.0 0.0 -7.1250 0.0 0.0 -3.3133 -2.7115 -3.472 0.0000 -0.0000 0.0000 -11.0981 -1.7953 53.4707 -40.8228 -48.5499 -19.0537 23.5952 -24.3922 47.5008 0.0 0.0 0.0 7.1250 0.0 -0.0 76.3783 61.8021 -43.4973
11.3223 23.2862 8.7791 393.8210 -73.2374 4.3898 0.0000 0.0000 0.0000 -12.5952 -15.8121 -46.4502 6.5534 14.9439 47.1641 2.4002 15.3259 28.3192 6.5974 -14.9833 -47.3347 0.0000 0.0000 0.0000 16.6055 8.9308 -43.2143 -1.9050 -8.6654 24.7542 -0.0985 -18.8218 14.0925 -3.2316 11.0609 -32.4856 -8.0938 0.1488 -25.7909 1.5660 2.1339 -2.3796 7.1876 0.4802 11.3519 -3.7848 -0.5142 -1.9152 6.9850 -1.1801 8.9378 2.9611 -0.5008 3.3314 0.0000 -0.0000 0.0000 76.0169 9.8913 -28.7384 130.3981 -52.8337 94.1434 25.2734 -33.3504 30.8001 0.0 0.0 0.0 -7.1250 0.0 0.0 -3.4534 -3.3599 -3.6564 0.0000 -0.0000 0.0000 -11.3688 -2.0169 52.2135 -39.3894 -47.7039 -17.9863 18.778 -19.4248 43.2735 0.0 0.0 0.0 7.1250 0.0 -0.0 66.0934 61.2243 -33.8263
11.3967 23.2135 8.7960 398.3850 -75.6095 0.0854 0.0000 0.0000 0.0000 -12.4422 -15.7152 -46.9750 6.3183 14.7299 46.2462 2.5014 15.3182 28.8778 6.4413 -14.8427 -46.7280 0.0000 0.0000 0.0000 17.1060 7.3927 -43.4609 -1.8112 -8.4613 24.1243 -0.1067 -18.8021 14.1486 -3.5057 11.4718 -33.8882 -7.9660 0.2027 -25.4581 1.4243 2.1707 -2.1950 6.9524 0.5021 11.3931 -3.7315 -0.5331 -2.1492 6.9747 -1.2078 8.9947 2.9494 -0.5096 3.3967 -0.0000 0.0000 0.0000 76.6071 8.2993 -28.3237 130.0380 -52.9802 93.8562 24.7878 -33.0391 30.6783 0.0 0.0 0.0 -7.1250 0.0 0.0 -3.7104 -3.1208 -3.9149 -0.0000 0.0000 0.0000 -11.8275 -2.2592 51.3543 -38.0192 -46.8516 -16.9796 21.6327 -22.841 47.3379 0.0 0.0 0.0 7.1250 0.0 -0.0 74.7122 62.3032 -42.7391
11.4735 23.1340 8.8205 405.1970 -77.6504 -6.2877 0.0000 0.0000 0.0000 -12.5056 -15.8664 -47.6145 6.0540 14.4804 45.1979 2.6290 14.8863 29.5151 6.6002 -14.9857 -47.3453 0.0000 0.0000 0.0000 16.2149 7.6706 -43.2465 -1.7304 -8.2803 23.5687 0.5600 -21.7538 10.6413 -2.1368 9.1455 -26.2514 -8.3186 -0.0929 -25.1431 1.6043 1.8299 -2.1862 7.2372 0.3261 11.2747 -3.8887 -0.5101 -2.1291 6.9621 -1.1732 9.0204 2.9761 -0.5001 3.4017 -0.0000 -0.0000 0.0000 76.4645 7.2135 -28.2004 129.8487 -53.0563 93.705 24.754 -32.6205 30.3152 0.0 0.0 0.0 -7.1250 0.0 0.0 -3.6719 -2.7366 -3.8508 -0.0000 -0.0000 0.0000 -12.7582 -2.4255 50.9173 -36.6309 -45.9422 -15.9743 19.9683 -22.945 51.553 0.0 0.0 0.0 7.1250 0.0 -0.0 81.1122 64.3184 -51.8754
11.5507 23.0447 8.8425 413.5370 -79.4116 -14.1000 0.0000 0.0000 0.0000 -12.3387 -16.0530 -48.4703 5.7935 14.2252 44.1474 2.6668 14.8486 29.7150 6.5550 -14.9454 -47.1706 0.0000 0.0000 0.0000 16.4680 6.6741 -43.7505 -1.6648 -8.1299 23.1092 0.5694 -21.9299 10.7284 -2.7111 10.2120 -29.6660 -8.5729 -0.3741 -24.8803 1.7821 1.4776 -2.2424 7.4608 0.1525 11.1198 -4.3398 -0.4858 -1.9443 7.0584 -1.1334 9.0019 3.0948 -0.4976 3.3658 -0.0000 -0.0000 0.0000 76.3549 6.1138 -28.3355 129.7988 -53.0763 93.6651 25.6444 -32.2089 29.8881 0.0 0.0 0.0 -7.1250 0.0 0.0 -3.0928 -2.4976 -3.2293 -0.0000 -0.0000 0.0000 -14.2464 -2.1666 50.8044 -36.0328 -45.5357 -15.5459 31.9684 -33.5719 50.3061 0.0 0.0 0.0 7.1250 0.0 -0.0 86.5358 60.3371 -51.3932
